<?xml version="1.0" standalone="no"?>
<!DOCTYPE svg PUBLIC "-//W3C//DTD SVG 20010904//EN"
 "http://www.w3.org/TR/2001/REC-SVG-20010904/DTD/svg10.dtd">
<svg version="1.0" xmlns="http://www.w3.org/2000/svg"
 width="700.000000pt" height="700.000000pt" viewBox="0 0 700.000000 700.000000"
 preserveAspectRatio="xMidYMid meet">
<metadata>
Created by potrace 1.14, written by Peter Selinger 2001-2017
</metadata>
<g transform="translate(0.000000,700.000000) scale(0.100000,-0.100000)"
fill="#000000" stroke="none">
<path d="M3367 6824 c-1 -1 -48 -5 -105 -8 -94 -6 -210 -19 -287 -32 -16 -3
-39 -7 -50 -8 -70 -10 -300 -65 -405 -98 -243 -75 -521 -199 -717 -319 -35
-22 -67 -39 -72 -39 -5 0 -11 -3 -13 -7 -1 -5 -42 -34 -90 -66 -281 -188 -560
-453 -785 -747 -57 -75 -188 -272 -228 -345 -51 -92 -121 -229 -149 -295 -16
-36 -37 -83 -46 -105 -33 -74 -102 -278 -126 -370 -20 -76 -44 -177 -49 -205
-3 -19 -8 -42 -10 -50 -14 -48 -44 -281 -52 -405 -13 -181 -7 -442 13 -597 23
-182 38 -265 74 -413 144 -596 446 -1131 882 -1566 475 -473 1066 -788 1718
-914 47 -9 101 -18 120 -20 32 -4 91 -13 132 -21 119 -22 635 -21 743 1 11 2
45 7 76 10 31 3 67 8 80 11 13 2 40 7 59 10 19 3 76 14 125 25 815 177 1522
646 2011 1331 180 253 334 557 435 858 44 131 99 336 113 422 3 18 7 42 10 53
2 11 9 61 16 110 6 50 14 101 16 115 22 134 22 595 0 715 -2 11 -7 47 -11 80
-4 32 -8 66 -10 75 -1 8 -6 35 -10 60 -13 78 -16 93 -35 180 -24 110 -92 329
-137 444 -210 542 -567 1034 -1012 1391 -303 244 -660 441 -1021 564 -116 40
-372 106 -466 121 -113 18 -117 18 -169 26 -27 3 -57 8 -65 9 -63 11 -493 27
-503 19z m263 -370 c355 -98 700 -626 900 -1377 17 -64 33 -126 36 -137 2 -11
6 -30 9 -42 9 -36 52 -258 59 -303 4 -22 11 -69 17 -105 11 -71 14 -87 24
-170 3 -30 8 -66 10 -80 2 -14 7 -65 11 -115 3 -49 8 -99 10 -109 2 -11 6 -92
10 -180 l6 -161 -1222 0 -1222 0 7 160 c3 88 8 174 9 190 2 17 7 65 10 107 4
43 9 88 11 100 2 13 6 50 10 82 14 146 61 411 106 606 78 332 180 624 305 870
261 515 578 750 894 664z m-978 -132 c-116 -149 -274 -436 -352 -642 -11 -30
-25 -64 -29 -75 -47 -104 -178 -552 -197 -670 -3 -22 -8 -43 -10 -46 -2 -3 -6
-21 -9 -40 -3 -19 -12 -68 -20 -109 -17 -89 -18 -93 -44 -280 -23 -163 -28
-203 -37 -310 -3 -41 -7 -91 -9 -110 -2 -19 -7 -107 -11 -195 -4 -88 -9 -162
-11 -165 -3 -3 -317 -5 -699 -5 l-695 0 6 75 c4 41 8 86 10 100 2 14 7 45 10
70 3 25 10 69 16 98 6 29 12 65 14 81 11 88 88 341 151 499 55 137 150 334
185 383 10 15 19 30 19 33 0 9 67 113 133 206 97 136 191 246 331 386 333 332
699 559 1151 714 61 21 112 36 114 34 3 -2 -5 -17 -17 -32z m1888 -35 c393
-144 743 -370 1051 -677 168 -168 266 -284 380 -455 64 -96 173 -280 174 -295
1 -3 17 -36 37 -75 101 -199 211 -538 247 -765 6 -36 13 -74 15 -85 4 -21 13
-108 21 -205 l5 -55 -694 0 c-382 0 -696 2 -699 5 -3 3 -8 75 -11 160 -4 85
-9 171 -11 190 -2 19 -6 71 -9 115 -4 44 -8 91 -10 105 -3 14 -7 52 -11 85 -7
68 -30 239 -40 295 -3 14 -8 43 -11 65 -3 22 -17 92 -31 155 -13 63 -26 125
-29 136 -17 86 -83 321 -125 447 -114 342 -254 631 -411 848 -26 37 -48 69
-48 72 0 6 88 -21 210 -66z m-2617 -2967 c3 -3 8 -77 12 -165 3 -88 8 -176 10
-195 1 -19 6 -71 9 -115 4 -44 9 -91 11 -105 2 -14 7 -54 10 -90 3 -36 8 -72
10 -80 2 -8 6 -37 10 -65 5 -44 23 -154 41 -250 90 -497 247 -955 455 -1335
24 -42 130 -203 161 -242 l29 -37 -38 10 c-37 10 -109 34 -148 49 -363 142
-585 267 -864 485 -90 71 -356 335 -433 430 -196 244 -339 486 -452 762 -81
198 -148 429 -176 608 -6 39 -13 82 -16 98 -2 15 -7 51 -9 80 -3 28 -8 73 -11
99 -3 26 -3 51 -1 55 6 9 1382 11 1390 3z m2791 -110 c-1 -106 -12 -313 -19
-351 -2 -8 -6 -51 -9 -95 -4 -43 -9 -86 -11 -94 -2 -8 -7 -37 -10 -65 -18
-170 -84 -494 -142 -705 -162 -590 -403 -1031 -678 -1243 -53 -41 -174 -104
-215 -113 -85 -17 -110 -20 -155 -17 -382 24 -762 535 -985 1324 -17 60 -33
118 -35 130 -2 11 -7 29 -10 39 -3 10 -7 27 -9 37 -3 10 -11 48 -20 86 -9 37
-18 82 -21 100 -3 17 -13 70 -21 117 -9 47 -17 92 -19 100 -1 8 -6 40 -10 70
-4 30 -9 62 -10 70 -3 15 -15 111 -20 160 -1 14 -6 61 -10 105 -4 44 -8 94
-10 110 -2 17 -7 102 -10 190 l-7 160 1218 0 1219 0 -1 -115z m1750 70 c-1
-49 -14 -183 -20 -215 -3 -11 -7 -36 -9 -55 -3 -19 -8 -46 -11 -60 -3 -14 -8
-36 -10 -50 -33 -187 -144 -512 -243 -710 -159 -317 -336 -562 -586 -807 -279
-274 -576 -474 -930 -625 -99 -42 -326 -121 -332 -115 -1 2 14 23 34 47 155
195 322 538 444 913 43 132 127 453 144 547 43 241 57 328 74 460 11 85 23
196 26 245 4 50 9 98 11 107 1 9 6 93 10 185 3 92 8 170 9 173 2 3 315 5 697
5 l693 0 -1 -45z"/>
</g>
</svg>
