<svg width="18" height="16" viewBox="0 0 18 16" fill="none" xmlns="http://www.w3.org/2000/svg">
<path d="M8.99998 15.5009C8.46248 15.0243 7.85498 14.5284 7.21248 14.0009H7.20415C4.94165 12.1509 2.37748 10.0576 1.24498 7.54927C0.87291 6.75071 0.675732 5.88188 0.666635 5.00094C0.664151 3.79217 1.14895 2.63343 2.01149 1.78658C2.87402 0.939728 4.04147 0.476266 5.24998 0.500937C6.23384 0.502491 7.19651 0.786838 8.02331 1.3201C8.38662 1.55591 8.71533 1.84115 8.99998 2.1676C9.28622 1.84243 9.61502 1.55736 9.97748 1.3201C10.8039 0.786733 11.7664 0.502369 12.75 0.500937C13.9585 0.476266 15.1259 0.939728 15.9885 1.78658C16.851 2.63343 17.3358 3.79217 17.3333 5.00094C17.3248 5.88328 17.1276 6.7536 16.755 7.55344C15.6225 10.0618 13.0591 12.1543 10.7966 14.0009L10.7883 14.0076C10.145 14.5318 9.53831 15.0276 9.00081 15.5076L8.99998 15.5009ZM5.24998 2.1676C4.47374 2.15789 3.72504 2.45497 3.16664 2.99427C2.62863 3.52274 2.32794 4.24681 2.33324 5.00094C2.34275 5.64302 2.48817 6.27581 2.75998 6.8576C3.29457 7.93986 4.0159 8.91931 4.89081 9.75094C5.71665 10.5843 6.66664 11.3909 7.48831 12.0693C7.71581 12.2568 7.94748 12.4459 8.17915 12.6351L8.32498 12.7543C8.54748 12.9359 8.77748 13.1243 8.99998 13.3093L9.01081 13.2993L9.01581 13.2951H9.02081L9.02831 13.2893H9.03248H9.03664L9.05165 13.2768L9.08581 13.2493L9.09164 13.2443L9.10081 13.2376H9.10581L9.11331 13.2309L9.66664 12.7768L9.81164 12.6576C10.0458 12.4668 10.2775 12.2776 10.505 12.0901C11.3266 11.4118 12.2775 10.6059 13.1033 9.76844C13.9783 8.93724 14.6997 7.95803 15.2341 6.87594C15.5109 6.2891 15.6584 5.64969 15.6667 5.00094C15.6701 4.24914 15.3696 3.52785 14.8333 3.00094C14.276 2.4592 13.5272 2.15967 12.75 2.1676C11.8016 2.15954 10.8949 2.55708 10.2583 3.2601L8.99998 4.7101L7.74164 3.2601C7.10503 2.55708 6.19838 2.15954 5.24998 2.1676Z" fill="#222222"/>
</svg>
