<svg width="20" height="20" viewBox="0 0 20 20" fill="none" xmlns="http://www.w3.org/2000/svg">
<path d="M1 10.5H19V9.5H1V10.5ZM10 18.5C5.30558 18.5 1.5 14.6944 1.5 10H0.5C0.5 15.2467 4.75329 19.5 10 19.5V18.5ZM1.5 10C1.5 5.30558 5.30558 1.5 10 1.5V0.5C4.75329 0.5 0.5 4.75329 0.5 10H1.5ZM10 1.5C14.6944 1.5 18.5 5.30558 18.5 10H19.5C19.5 4.75329 15.2467 0.5 10 0.5V1.5ZM18.5 10C18.5 14.6944 14.6944 18.5 10 18.5V19.5C15.2467 19.5 19.5 15.2467 19.5 10H18.5ZM10 18.5C9.61041 18.5 9.20161 18.3244 8.78771 17.9305C8.37124 17.5342 7.97343 16.937 7.62848 16.1609C6.93913 14.6099 6.5 12.4321 6.5 10H5.5C5.5 12.5385 5.9563 14.8607 6.71467 16.567C7.09357 17.4196 7.55769 18.1404 8.09833 18.6549C8.64154 19.1719 9.28502 19.5 10 19.5V18.5ZM6.5 10C6.5 7.56793 6.93913 5.39015 7.62848 3.83911C7.97343 3.06296 8.37124 2.46581 8.78771 2.06946C9.20161 1.67557 9.61041 1.5 10 1.5V0.5C9.28502 0.5 8.64154 0.82811 8.09833 1.34507C7.55769 1.85957 7.09357 2.58044 6.71467 3.43297C5.9563 5.13929 5.5 7.46151 5.5 10H6.5ZM10 1.5C10.3896 1.5 10.7984 1.67557 11.2123 2.06946C11.6288 2.46581 12.0266 3.06296 12.3715 3.83911C13.0609 5.39015 13.5 7.56793 13.5 10H14.5C14.5 7.46151 14.0437 5.13929 13.2853 3.43297C12.9064 2.58044 12.4423 1.85957 11.9017 1.34507C11.3585 0.82811 10.715 0.5 10 0.5V1.5ZM13.5 10C13.5 12.4321 13.0609 14.6099 12.3715 16.1609C12.0266 16.937 11.6288 17.5342 11.2123 17.9305C10.7984 18.3244 10.3896 18.5 10 18.5V19.5C10.715 19.5 11.3585 19.1719 11.9017 18.6549C12.4423 18.1404 12.9064 17.4196 13.2853 16.567C14.0437 14.8607 14.5 12.5385 14.5 10H13.5Z" fill="black"/>
</svg>
