<svg width="108" height="104" viewBox="0 0 108 104" fill="none" xmlns="http://www.w3.org/2000/svg">
<path d="M55.5 88C74.5538 88 90 72.5538 90 53.5C90 34.4462 74.5538 19 55.5 19C36.4462 19 21 34.4462 21 53.5C21 72.5538 36.4462 88 55.5 88Z" fill="url(#paint0_linear_139_207)"/>
<path d="M55.2064 89.5233C35.3632 89.5233 19.3056 73.4657 19.3056 53.6225C19.3056 33.7793 35.3632 17.7217 55.2064 17.7217C75.0496 17.7217 91.1072 33.7793 91.1072 53.6225C91.0656 73.4241 75.008 89.4817 55.2064 89.5233ZM55.2064 21.2993C37.36 21.2993 22.9248 35.7761 22.9248 53.5809C22.9248 71.4273 37.4016 85.8625 55.2064 85.8625C73.0528 85.8625 87.488 71.3857 87.488 53.5809C87.488 35.7761 73.0112 21.2993 55.2064 21.2993Z" fill="#262626"/>
<path d="M78.544 55.536H78.2528C77.2544 55.3696 76.5888 54.4545 76.7552 53.4977C77.2544 50.2529 76.672 46.9248 75.008 44.096C73.6768 41.8912 71.8048 40.0608 69.5168 38.8544C68.6432 38.3968 68.3104 37.2736 68.768 36.4C69.2256 35.5264 70.3488 35.1937 71.2224 35.6513C74.0928 37.1905 76.464 39.4785 78.128 42.2656C80.208 45.8433 80.9568 50.0032 80.3328 54.0384C80.208 54.8704 79.4592 55.536 78.544 55.536Z" fill="white"/>
<path d="M20.8448 54.496C20.8448 54.496 4.95361 59.6128 4.74561 65.8528C4.95361 70.2208 20.6368 73.7984 56.0384 67.3504C91.44 60.9024 102.797 51.4592 103.213 47.1744C103.629 42.8896 91.024 41.6 85.7408 42.224" stroke="#262626" stroke-width="8.0249" stroke-miterlimit="10"/>
<path d="M94.5184 29.6609C89.0688 29.6609 84.6592 25.2513 84.6592 19.8017C84.6592 14.3521 89.0688 9.9425 94.5184 9.9425C99.968 9.9425 104.378 14.3521 104.378 19.8017C104.336 25.2097 99.9264 29.6193 94.5184 29.6609ZM94.5184 13.5617C91.0656 13.5617 88.2784 16.3489 88.2784 19.8017C88.2784 23.2545 91.0656 26.0417 94.5184 26.0417C97.9712 26.0417 100.758 23.2545 100.758 19.8017C100.717 16.3905 97.9296 13.6449 94.5184 13.6033V13.5617Z" fill="#262626"/>
<path d="M29.5 94C27.0077 94 25 91.9923 25 89.5C25 87.0077 27.0077 85 29.5 85C31.9923 85 34 87.0077 34 89.5C34 91.9923 31.9923 94 29.5 94ZM29.5 87.9769C28.6692 87.9769 27.9769 88.6692 27.9769 89.5C27.9769 90.3308 28.6692 91.0231 29.5 91.0231C30.3308 91.0231 31.0231 90.3308 31.0231 89.5C30.9538 88.6692 30.3308 87.9769 29.5 87.9769Z" fill="#262626"/>
<defs>
<linearGradient id="paint0_linear_139_207" x1="55.5" y1="19" x2="55.5" y2="88" gradientUnits="userSpaceOnUse">
<stop stop-color="#D4D4FB"/>
<stop offset="1" stop-color="#C4B7FB"/>
</linearGradient>
</defs>
</svg>
